<svg id="Capa_1" data-name="Capa 1" xmlns="http://www.w3.org/2000/svg" viewBox="0 0 222 222"><defs><style>.cls-1{fill:#b99664;}.cls-2{fill:#b08f5f;}.cls-3{fill:#a9895b;}</style></defs><path d="M110.8,35.79c33.33-6.11,56.6,27.07,46.12,59.17,11.56,3.21,21.37,9.81,22.86,22,1.16,9.65,5.61,15.68,11.64,22.52,7.75,8.83,8.41,19.81,3.13,30.54-5.78,11.63-15.68,16.83-28.47,16.83q-55.45.12-110.82,0a30.15,30.15,0,0,1-4.79-.41c-12.54-1.74-22.69-10.4-25.49-21.79a29.59,29.59,0,0,1,11.8-31.93c3.13-2.15,4-4.29,3.88-7.84-.25-13,6-22.28,17.74-27.64,3.13-1.41,3.87-3.06,4-6.28.49-16.58,12.79-28.38,29.54-28.63,4-.08,8.09,0,12.13,0,4.62-.08,7-2.31,6.93-7.1C110.71,48.83,110.8,42.39,110.8,35.79Z"/><path class="cls-1" d="M155.19,130.36a18.73,18.73,0,0,0,1.73-7.93c0-9.4-5.77-15.92-18.15-19.39,0,0-.83-.25-1.24-.33-23.6-6.6-21.62-23-10.64-30.86C112,68.55,98.34,74.74,92,81.67a24.45,24.45,0,0,0-6.19,20.71c-14.11,3.3-20.71,10-20.71,20.05a18.88,18.88,0,0,0,1.73,7.93c-9.07,4.7-13.28,11.63-13.28,20.87,0,18.57,17.16,28.06,57.51,28.06s57.52-9.49,57.52-28.06C168.48,142,164.27,135.06,155.19,130.36Z"/><path class="cls-2" d="M112.53,153c-28.14,1.81-30.95-10.24-27.89-28.06-21.7,3.55-31.28,12.38-31.28,26.24,0,18.57,17.17,28.06,57.52,28.06a153.45,153.45,0,0,0,29.37-2.4C155,164.77,140.58,151.07,112.53,153Z"/><path class="cls-3" d="M103.2,170.21c-31.52-2-42-20-43.57-34.9-4.29,4.2-6.27,9.49-6.27,15.84,0,18.57,17.17,28.06,57.52,28.06,35.4,0,52.89-7.35,56.69-21.62C151.81,166,129.53,171.86,103.2,170.21Z"/><path class="cls-2" d="M156.84,122.35a17,17,0,0,0-2.15-8.75c-8.25,9.74-23.6,14.69-42.66,14.36-21.78-.33-34-9.24-36.39-22.19-7.26,3.79-10.72,9.24-10.72,16.58,0,14.85,14.35,22.45,46,22.45S156.84,137.2,156.84,122.35Z"/><path class="cls-3" d="M69.87,110A16.9,16.9,0,0,0,65,122.35c0,14.85,14.36,22.45,46,22.45,23.19,0,37.13-4.13,42.83-12.22-8.91,5.37-38.13,6.6-50.34,5.78C78,136.79,70.69,124.66,69.87,110Z"/><path class="cls-3" d="M88.43,95.45c1.24-12.71,15.68-24.67,34.5-22.28-13.78,1.07-20.3,12.46-18,20.88,1.73,6.52-.91,11-6.85,12S87.77,102.13,88.43,95.45Z"/></svg>