<svg id="Capa_1" data-name="Capa 1" xmlns="http://www.w3.org/2000/svg" viewBox="0 0 344.38 344.38"><defs><style>.cls-1{isolation:isolate;font-size:228.16px;fill:#69502e;font-family:Morganite-Medium, Morganite;font-weight:500;}.cls-2{fill:#b99664;}.cls-3{fill:#b08f5f;}.cls-4{fill:#a9895b;}</style></defs><text class="cls-1" transform="translate(27.84 335.47) scale(0.74 1)">SHITNEWS</text><path d="M172.05,10.71c33.3-6.1,56.6,27.1,46.1,59.2,11.6,3.2,21.4,9.8,22.9,22,1.2,9.7,5.6,15.7,11.6,22.5,7.8,8.8,8.4,19.8,3.1,30.5-5.8,11.6-15.7,16.8-28.5,16.8q-55.5.15-110.8,0a37.28,37.28,0,0,1-4.8-.4c-12.5-1.7-22.7-10.4-25.5-21.8A29.44,29.44,0,0,1,98,107.61c3.1-2.1,4-4.3,3.9-7.8-.2-13,6-22.3,17.7-27.6,3.1-1.4,3.9-3.1,4-6.3.5-16.6,12.8-28.4,29.5-28.6,4-.1,8.1,0,12.1,0,4.6-.1,7-2.3,6.9-7.1C172,23.71,172.05,17.31,172.05,10.71Z"/><path class="cls-2" d="M216.45,105.31a18.14,18.14,0,0,0,1.7-7.9c0-9.4-5.8-15.9-18.2-19.4l-1.2-.3c-23.6-6.6-21.6-23-10.6-30.9-14.9-3.3-28.6,2.9-34.9,9.8a24.57,24.57,0,0,0-6.2,20.7c-14.1,3.3-20.7,10-20.7,20.1a19.69,19.69,0,0,0,1.7,7.9c-9.1,4.7-13.3,11.6-13.3,20.9,0,18.6,17.2,28.1,57.5,28.1s57.5-9.5,57.5-28.1C229.75,116.91,225.45,110,216.45,105.31Z"/><path class="cls-3" d="M173.75,127.91c-28.1,1.8-30.9-10.2-27.9-28.1-21.7,3.5-31.3,12.4-31.3,26.2,0,18.6,17.2,28.1,57.5,28.1q17.55,0,29.4-2.4C216.25,139.71,201.85,126,173.75,127.91Z"/><path class="cls-4" d="M164.45,145.11c-31.5-2-42-20-43.6-34.9-4.3,4.2-6.3,9.5-6.3,15.8,0,18.6,17.2,28.1,57.5,28.1,35.4,0,52.9-7.3,56.7-21.6C213.05,140.91,190.75,146.81,164.45,145.11Z"/><path class="cls-3" d="M218.05,97.31a17.24,17.24,0,0,0-2.1-8.7c-8.3,9.7-23.6,14.7-42.7,14.4-21.8-.3-34-9.2-36.4-22.2-7.3,3.8-10.7,9.2-10.7,16.6,0,14.9,14.4,22.4,46,22.4S218.05,112.11,218.05,97.31Z"/><path class="cls-4" d="M131.05,84.91a17.37,17.37,0,0,0-4.9,12.4c0,14.9,14.4,22.4,46,22.4,23.2,0,37.1-4.1,42.8-12.2-8.9,5.4-38.1,6.6-50.3,5.8C139.25,111.71,132,99.61,131.05,84.91Z"/><path class="cls-4" d="M149.65,70.41c1.2-12.7,15.7-24.7,34.5-22.3-13.8,1.1-20.3,12.5-18,20.9,1.7,6.5-.9,11-6.8,12S149,77.11,149.65,70.41Z"/></svg>