<svg id="Capa_1" data-name="Capa 1" xmlns="http://www.w3.org/2000/svg" viewBox="0 0 412.98 117"><rect x="17.39" y="86.1" width="11.1" height="11.1"/><rect x="17.39" y="74.9" width="11.1" height="11.1"/><rect x="17.39" y="63.8" width="11.1" height="11.1"/><rect x="17.39" y="52.7" width="11.1" height="11.1"/><rect x="84.19" y="86.1" width="11.1" height="11.1"/><rect x="106.49" y="86.1" width="11.1" height="11.1"/><rect x="117.59" y="75" width="11.1" height="11.1"/><rect x="84.19" y="75" width="11.1" height="11.1"/><rect x="84.19" y="63.8" width="11.1" height="11.1"/><rect x="84.19" y="52.7" width="11.1" height="11.1"/><rect x="84.19" y="31" width="11.1" height="11.1"/><rect x="61.99" y="19.8" width="11.1" height="11.1"/><rect x="61.99" y="31" width="11.1" height="11.1"/><rect x="61.99" y="42.1" width="11.1" height="11.1"/><rect x="61.99" y="53.3" width="11.1" height="11.1"/><rect x="61.99" y="53.3" width="11.1" height="11.1"/><rect x="50.79" y="53.3" width="11.1" height="11.1"/><rect x="39.69" y="53.3" width="11.1" height="11.1"/><rect x="28.59" y="53.3" width="11.1" height="11.1"/><rect x="28.59" y="19.8" width="11.1" height="11.1"/><rect x="39.69" y="19.8" width="11.1" height="11.1"/><rect x="50.79" y="19.8" width="11.1" height="11.1"/><rect x="17.39" y="41.8" width="11.1" height="11.1"/><rect x="17.39" y="30.7" width="11.1" height="11.1"/><rect x="17.39" y="19.8" width="11.1" height="11.1"/><rect x="339.99" y="86.1" width="11.1" height="11.1"/><rect x="339.99" y="52.7" width="11.1" height="11.1"/><rect x="384.49" y="19.9" width="11.1" height="11.1"/><rect x="384.49" y="53.3" width="11.1" height="11.1"/><rect x="384.49" y="53.3" width="11.1" height="11.1"/><rect x="373.39" y="53.3" width="11.1" height="11.1"/><rect x="362.19" y="53.3" width="11.1" height="11.1"/><rect x="351.09" y="53.3" width="11.1" height="11.1"/><rect x="351.09" y="19.9" width="11.1" height="11.1"/><rect x="362.19" y="19.9" width="11.1" height="11.1"/><rect x="373.39" y="19.9" width="11.1" height="11.1"/><rect x="384.49" y="19.9" width="11.1" height="11.1"/><rect x="339.99" y="41.9" width="11.1" height="11.1"/><rect x="339.99" y="30.7" width="11.1" height="11.1"/><rect x="339.99" y="19.9" width="11.1" height="11.1"/><rect x="339.99" y="19.9" width="11.1" height="11.1"/><rect x="339.99" y="31" width="11.1" height="11.1"/><rect x="339.99" y="42.2" width="11.1" height="11.1"/><rect x="339.99" y="53.3" width="11.1" height="11.1"/><rect x="384.49" y="86.1" width="11.1" height="11.1"/><rect x="384.49" y="75" width="11.1" height="11.1"/><rect x="384.49" y="63.8" width="11.1" height="11.1"/><rect x="384.49" y="52.7" width="11.1" height="11.1"/><rect x="373.39" y="52.7" width="11.1" height="11.1"/><rect x="362.19" y="52.7" width="11.1" height="11.1"/><rect x="351.09" y="52.7" width="11.1" height="11.1"/><rect x="351.09" y="86.1" width="11.1" height="11.1"/><rect x="362.19" y="86.1" width="11.1" height="11.1"/><rect x="373.39" y="86.1" width="11.1" height="11.1"/><rect x="339.99" y="86.1" width="11.1" height="11.1"/><rect x="128.79" y="63.8" width="11.1" height="11.1"/><rect x="139.79" y="52.7" width="11.1" height="11.1"/><rect x="150.99" y="41.5" width="11.1" height="11.1"/><rect x="106.49" y="41.5" width="11.1" height="11.1"/><rect x="117.59" y="52.7" width="11.1" height="11.1"/><rect x="128.79" y="63.8" width="11.1" height="11.1"/><rect x="139.79" y="75" width="11.1" height="11.1"/><rect x="150.99" y="86.1" width="11.1" height="11.1"/><rect x="173.29" y="85.9" width="11.1" height="11.1"/><rect x="173.29" y="74.8" width="11.1" height="11.1"/><rect x="173.29" y="63.7" width="11.1" height="11.1"/><rect x="173.29" y="52.5" width="11.1" height="11.1"/><rect x="173.29" y="41.6" width="11.1" height="11.1"/><rect x="206.69" y="86.1" width="11.1" height="11.1"/><rect x="195.49" y="86.1" width="11.1" height="11.1"/><rect x="184.49" y="86.1" width="11.1" height="11.1"/><rect x="173.29" y="86.1" width="11.1" height="11.1"/><rect x="217.79" y="86.1" width="11.1" height="11.1"/><rect x="217.79" y="75" width="11.1" height="11.1"/><rect x="217.79" y="63.8" width="11.1" height="11.1"/><rect x="217.79" y="52.7" width="11.1" height="11.1"/><rect x="184.49" y="41.6" width="11.1" height="11.1"/><rect x="195.49" y="41.6" width="11.1" height="11.1"/><rect x="206.69" y="41.6" width="11.1" height="11.1"/><rect x="217.79" y="41.6" width="11.1" height="11.1"/><rect x="239.99" y="86.1" width="11.1" height="11.1"/><rect x="239.99" y="74.9" width="11.1" height="11.1"/><rect x="239.99" y="63.8" width="11.1" height="11.1"/><rect x="239.99" y="52.7" width="11.1" height="11.1"/><rect x="239.99" y="41.8" width="11.1" height="11.1"/><rect x="261.99" y="86.1" width="11.1" height="11.1"/><rect x="250.79" y="86.1" width="11.1" height="11.1"/><rect x="239.99" y="86.1" width="11.1" height="11.1"/><rect x="239.99" y="41.5" width="11.1" height="11.1"/><rect x="251.29" y="41.5" width="11.1" height="11.1"/><rect x="262.39" y="41.5" width="11.1" height="11.1"/><rect x="284.19" y="86.1" width="11.1" height="11.1"/><rect x="284.19" y="75" width="11.1" height="11.1"/><rect x="284.19" y="63.8" width="11.1" height="11.1"/><rect x="284.19" y="52.7" width="11.1" height="11.1"/><rect x="295.39" y="63.8" width="11.1" height="11.1"/><rect x="306.49" y="52.4" width="11.1" height="11.1"/><rect x="317.69" y="41.5" width="11.1" height="11.1"/><rect x="306.49" y="75" width="11.1" height="11.1"/><rect x="317.69" y="86.1" width="11.1" height="11.1"/><rect x="284.19" y="41.9" width="11.1" height="11.1"/></svg>