<?xml version="1.0" encoding="utf-8"?>
<!-- Generator: Adobe Illustrator 25.0.1, SVG Export Plug-In . SVG Version: 6.00 Build 0)  -->
<svg version="1.1" id="Capa_1" xmlns="http://www.w3.org/2000/svg" xmlns:xlink="http://www.w3.org/1999/xlink" x="0px" y="0px"
	 viewBox="0 0 24 24" style="enable-background:new 0 0 24 24;" xml:space="preserve">
<style type="text/css">
	.st0{fill:none;stroke:#663399;stroke-width:2;stroke-linecap:round;stroke-linejoin:round;}
</style>
<path class="st0" d="M21.9,18L21,16.6c-1.6-2.4-2.5-5.1-2.4-8c0-2.9-1.9-5.5-4.7-6.3c-0.4-1-1.6-1.5-2.6-1.1
	c-0.5,0.2-0.9,0.6-1.1,1.1C7.4,3.1,5.4,5.7,5.4,8.6c0,2.9-0.8,5.6-2.4,8l-0.9,1.4c-0.3,0.5-0.1,1.1,0.3,1.4c0.2,0.1,0.3,0.1,0.5,0.1
	h18.2c0.6,0,1-0.4,1-1C22.1,18.4,22,18.2,21.9,18z"/>
<path class="st0" d="M15.4,19.6c0,1.9-1.5,3.4-3.4,3.4s-3.4-1.5-3.4-3.4"/>
</svg>
