<?xml version="1.0" encoding="utf-8"?>
<!-- Generator: Adobe Illustrator 25.0.1, SVG Export Plug-In . SVG Version: 6.00 Build 0)  -->
<svg version="1.1" id="Capa_1" xmlns="http://www.w3.org/2000/svg" xmlns:xlink="http://www.w3.org/1999/xlink" x="0px" y="0px"
	 viewBox="0 0 28.3 28.3" style="enable-background:new 0 0 28.3 28.3;" xml:space="preserve">
<style type="text/css">
	.st0{fill:none;stroke:#663399;stroke-width:2;stroke-miterlimit:10;}
</style>
<line class="st0" x1="0.9" y1="27" x2="27" y2="27"/>
<path class="st0" d="M5.7,21.9c0-0.3-0.2-0.5-0.5-0.6c0,0,0,0-0.1,0H2.8c-0.3,0-0.5,0.2-0.6,0.5c0,0,0,0,0,0.1v5h3.3v-5H5.7z"/>
<path class="st0" d="M12.3,16.4c0-0.3-0.2-0.5-0.5-0.6c0,0,0,0-0.1,0H9.4c-0.3,0-0.5,0.2-0.6,0.5c0,0,0,0,0,0.1V27h3.3V16.4H12.3z"
	/>
<path class="st0" d="M19,18.7c0-0.3-0.2-0.5-0.5-0.6c0,0,0,0-0.1,0h-2.3c-0.3,0-0.5,0.2-0.6,0.5c0,0,0,0,0,0.1v8.4h3.3v-8.4H19z"/>
<path class="st0" d="M25.7,10.8c0-0.3-0.2-0.5-0.5-0.6c0,0,0,0-0.1,0h-2.3c-0.3,0-0.5,0.2-0.6,0.5c0,0,0,0,0,0.1v16.1h3.3V10.8H25.7
	z"/>
<circle class="st0" cx="4" cy="13.5" r="1.7"/>
<circle class="st0" cx="10.7" cy="8" r="1.7"/>
<circle class="st0" cx="17.4" cy="10.3" r="1.7"/>
<circle class="st0" cx="24" cy="3" r="1.7"/>
<line class="st0" x1="5.3" y1="12.4" x2="9.3" y2="9.1"/>
<line class="st0" x1="12.3" y1="8.5" x2="15.8" y2="9.7"/>
<line class="st0" x1="22.7" y1="4" x2="18.5" y2="8.9"/>
</svg>
