<?xml version="1.0" encoding="utf-8"?>
<!-- Generator: Adobe Illustrator 25.0.1, SVG Export Plug-In . SVG Version: 6.00 Build 0)  -->
<svg version="1.1" id="Capa_1" xmlns="http://www.w3.org/2000/svg" xmlns:xlink="http://www.w3.org/1999/xlink" x="0px" y="0px"
	 viewBox="0 0 24 24" style="enable-background:new 0 0 24 24;" xml:space="preserve">
<style type="text/css">
	.st0{fill:none;}
	.st1{fill:#663399;}
</style>
<path class="st0" d="M-3.8-2.5h31.8v31.8H-3.8V-2.5z"/>
<path class="st1" d="M14.6,16.8L14,17c-1.2,0.2-2.4,0.2-3.5,0l-0.9-0.2l-1.3,1.5c-1.6,0-3.2-0.8-4.2-2.1c0.1-2.8,0.7-5.6,2-8.1
	C7.3,7.2,8.6,6.7,10,6.7l0.5,0.7h0.1c1-0.1,2.1-0.1,3.1,0l0.6-0.7c1.4,0.1,2.7,0.6,3.8,1.5c1.3,2.5,1.9,5.3,2,8.1
	c-1,1.3-2.5,2.1-4.2,2.1L14.6,16.8L14.6,16.8z M9.5,12.1c-0.7-0.1-1.4,0.5-1.4,1.2s0.5,1.4,1.2,1.4c0.1,0,0.2,0,0.2,0
	c0.8,0,1.4-0.6,1.4-1.3c0,0,0,0,0,0C10.9,12.7,10.3,12.1,9.5,12.1C9.5,12.1,9.5,12.1,9.5,12.1z M14.6,12.1c-0.7,0-1.3,0.7-1.3,1.4
	c0,0.7,0.7,1.3,1.4,1.3c0.7,0,1.3-0.6,1.3-1.3C16,12.7,15.4,12.1,14.6,12.1z M24,28l-6.6-6.6h4V2.8H2.8v18.5h14.6l0.8,2.6H2.8
	c-1.5,0-2.6-1.2-2.6-2.6c0,0,0,0,0,0V2.8c0-1.5,1.2-2.6,2.6-2.6h18.5c1.5,0,2.7,1.2,2.7,2.6c0,0,0,0,0,0V28z"/>
</svg>
