<svg xmlns="http://www.w3.org/2000/svg" viewBox="0 0 210.87 184.03"><defs><style>.cls-1{fill:#b99664;}.cls-2{fill:#b08f5f;}.cls-3{fill:#a9895b;}.cls-4{fill:#69502e;}</style></defs><g id="Capa_2" data-name="Capa 2"><g id="Capa_1-2" data-name="Capa 1"><path d="M105.27.88c40.43-7.35,68.57,32.75,55.92,71.66,14.05,3.89,25.9,11.86,27.69,26.71,1.41,11.7,6.8,19,14.06,27.32,9.36,10.65,10.2,24,3.75,37-7,14.13-19.06,20.39-34.51,20.41q-67.14.09-134.29,0a45.69,45.69,0,0,1-5.83-.49C16.87,181.43,4.59,171,1.15,157.17c-3.68-14.74,1.57-29.84,14.25-38.67,3.79-2.64,4.78-5.21,4.7-9.53-.28-15.8,7.28-27,21.5-33.47,3.8-1.72,4.66-3.68,4.78-7.57.6-20.1,15.54-34.4,35.83-34.69,4.89-.07,9.79,0,14.68,0,5.65-.08,8.49-2.84,8.41-8.65C105.18,16.74,105.27,8.94,105.27.88Z"/><path class="cls-1" d="M158.54,115.47a21.8,21.8,0,0,0,2.08-9.63c0-11.43-7-19.31-22-23.53,0,0-1-.29-1.52-.41-28.57-8-26.24-27.87-12.89-37.42-18-4-34.57,3.54-42.26,11.91a29.8,29.8,0,0,0-7.5,25.12c-17.13,4-25.14,12.14-25.14,24.33a21.8,21.8,0,0,0,2.07,9.63c-11,5.69-16.13,14.14-16.13,25.26,0,22.49,20.76,34,69.72,34s69.72-11.53,69.72-34C174.67,129.61,169.59,121.16,158.54,115.47Z"/><path class="cls-2" d="M106.92,142.86c-34.1,2.22-37.49-12.38-33.8-34-26.3,4.33-37.89,15-37.89,31.82,0,22.49,20.76,34,69.72,34,14.19,0,26-1,35.64-2.89C158.36,157.21,140.88,140.65,106.92,142.86Z"/><path class="cls-3" d="M95.6,163.83c-38.23-2.41-50.89-24.25-52.76-42.33-5.17,5.11-7.61,11.53-7.61,19.23,0,22.49,20.76,34,69.72,34,42.91,0,64.15-8.86,68.75-26.18C154.42,158.69,127.49,165.84,95.6,163.83Z"/><path class="cls-2" d="M160.62,105.84A21.43,21.43,0,0,0,158,95.23c-10,11.76-28.6,17.76-51.7,17.44-26.4-.36-41.24-11.2-44.09-26.89-8.78,4.55-13,11.25-13,20.06,0,18,17.38,27.16,55.66,27.16S160.62,123.79,160.62,105.84Z"/><path class="cls-3" d="M55.18,90.85a20.44,20.44,0,0,0-5.89,15c0,18,17.38,27.16,55.66,27.16,28.15,0,45-5,52-14.76-10.76,6.47-46.2,8-61,7C65.11,123.27,56.14,108.62,55.18,90.85Z"/><path class="cls-3" d="M77.64,73.22c1.49-15.41,19-29.86,41.79-27-16.66,1.28-24.52,15.14-21.8,25.26C99.76,79.37,96.5,84.74,89.31,86S76.86,81.31,77.64,73.22Z"/><path class="cls-4" d="M105,157.58c-20.11,0-27.88-10.6-27.88-16a2.66,2.66,0,0,1,2.67-2.66h50.42a2.66,2.66,0,0,1,2.67,2.66C132.83,147,125.06,157.58,105,157.58Z"/><path class="cls-4" d="M69.32,131.1V126a21.5,21.5,0,0,1-9.15-2.32l1.61-6.3a19,19,0,0,0,8.94,2.37c3.07,0,5.17-1.18,5.17-3.34s-1.72-3.33-5.71-4.68c-5.76-1.94-9.69-4.63-9.69-9.85,0-4.74,3.34-8.45,9.1-9.58V87.17h5.28v4.74a19.36,19.36,0,0,1,7.8,1.77l-1.56,6.09a17.86,17.86,0,0,0-7.75-1.83c-3.5,0-4.63,1.51-4.63,3,0,1.78,1.88,2.91,6.46,4.63,6.41,2.26,9,5.23,9,10.07s-3.39,8.88-9.58,10v5.49Z"/><path class="cls-4" d="M134.8,131.1V126a21.59,21.59,0,0,1-9.16-2.32l1.62-6.3a19,19,0,0,0,8.94,2.37c3.07,0,5.16-1.18,5.16-3.34s-1.72-3.33-5.7-4.68c-5.76-1.94-9.69-4.63-9.69-9.85,0-4.74,3.33-8.45,9.1-9.59V87.17h5.27v4.74a19.42,19.42,0,0,1,7.81,1.77l-1.56,6.09a17.91,17.91,0,0,0-7.76-1.83c-3.5,0-4.63,1.51-4.63,3,0,1.78,1.89,2.91,6.46,4.63,6.41,2.26,9,5.23,9,10.07s-3.4,8.88-9.59,10v5.49Z"/></g></g></svg>