<svg xmlns="http://www.w3.org/2000/svg" viewBox="0 0 393.69 437.51"><defs><style>.cls-1{font-size:276.5px;font-family:Morganite-MediumItalic, Morganite;font-weight:500;font-style:italic;}.cls-1,.cls-6{fill:#69502e;}.cls-2{letter-spacing:-0.02em;}.cls-3{fill:#b99664;}.cls-4{fill:#b08f5f;}.cls-5{fill:#a9895b;}</style></defs><g id="Capa_2" data-name="Capa 2"><g id="Capa_1-2" data-name="Capa 1"><text class="cls-1" transform="translate(0.97 388.85) scale(0.74 1)">S<tspan class="cls-2" x="60.83" y="0">W</tspan><tspan x="146.82" y="0">APSHITS</tspan></text><path d="M192.33.88c40.43-7.35,68.57,32.75,55.93,71.66,14,3.89,25.89,11.86,27.68,26.71,1.41,11.7,6.8,19,14.07,27.32,9.35,10.65,10.2,24,3.75,37-7,14.13-19.07,20.39-34.52,20.41q-67.14.09-134.28,0a45.7,45.7,0,0,1-5.84-.49c-15.19-2.08-27.46-12.55-30.91-26.34-3.68-14.74,1.58-29.84,14.26-38.67,3.78-2.64,4.77-5.21,4.7-9.53-.28-15.8,7.28-27,21.49-33.47,3.8-1.72,4.66-3.68,4.78-7.57.6-20.1,15.54-34.4,35.83-34.69,4.9-.07,9.79,0,14.68,0,5.65-.08,8.5-2.84,8.41-8.65C192.25,16.74,192.33,8.94,192.33.88Z"/><path class="cls-3" d="M246.09,115.47a21.8,21.8,0,0,0,2.07-9.63c0-11.43-7-19.31-22-23.53,0,0-1-.29-1.52-.41-28.58-8-26.24-27.87-12.89-37.42-18-4-34.57,3.54-42.26,11.91A29.77,29.77,0,0,0,162,81.51c-17.13,4-25.15,12.14-25.15,24.33a21.8,21.8,0,0,0,2.08,9.63c-11,5.69-16.13,14.14-16.13,25.26,0,22.49,20.76,34,69.72,34s69.72-11.53,69.72-34C262.22,129.61,257.14,121.16,246.09,115.47Z"/><path class="cls-4" d="M194.46,142.86c-34.09,2.22-37.48-12.38-33.8-34-26.29,4.33-37.88,15-37.88,31.82,0,22.49,20.76,34,69.72,34,14.19,0,26-1,35.64-2.89C245.9,157.21,228.43,140.65,194.46,142.86Z"/><path class="cls-5" d="M183.14,163.83c-38.22-2.41-50.88-24.25-52.76-42.33-5.17,5.11-7.6,11.53-7.6,19.23,0,22.49,20.76,34,69.72,34,42.9,0,64.15-8.86,68.75-26.18C242,158.69,215,165.84,183.14,163.83Z"/><path class="cls-4" d="M248.16,105.84a21.42,21.42,0,0,0-2.57-10.61C235.61,107,217,113,193.88,112.67c-26.39-.36-41.23-11.2-44.08-26.89-8.78,4.55-13,11.25-13,20.06,0,18,17.39,27.16,55.67,27.16S248.16,123.79,248.16,105.84Z"/><path class="cls-5" d="M142.72,90.85a20.48,20.48,0,0,0-5.89,15c0,18,17.39,27.16,55.67,27.16,28.15,0,45-5,51.95-14.76-10.76,6.47-46.2,8-61,7C152.66,123.27,143.69,108.62,142.72,90.85Z"/><path class="cls-5" d="M165.19,73.22c1.49-15.41,19.05-29.86,41.79-27-16.66,1.28-24.52,15.14-21.8,25.26,2.12,7.89-1.13,13.26-8.33,14.52S164.41,81.31,165.19,73.22Z"/><path class="cls-6" d="M192.5,157.58c-20.11,0-27.88-10.6-27.88-16a2.66,2.66,0,0,1,2.67-2.66h50.42a2.66,2.66,0,0,1,2.67,2.66C220.38,147,212.61,157.58,192.5,157.58Z"/><path class="cls-6" d="M156.87,131.1V126a21.5,21.5,0,0,1-9.15-2.32l1.61-6.3a19,19,0,0,0,8.94,2.37c3.07,0,5.17-1.18,5.17-3.34s-1.73-3.33-5.71-4.68c-5.76-1.94-9.69-4.63-9.69-9.85,0-4.74,3.34-8.45,9.1-9.58V87.17h5.27v4.74a19.42,19.42,0,0,1,7.81,1.77l-1.56,6.09a17.9,17.9,0,0,0-7.75-1.83c-3.5,0-4.63,1.51-4.63,3,0,1.78,1.88,2.91,6.46,4.63,6.4,2.26,9,5.23,9,10.07s-3.39,8.88-9.59,10v5.49Z"/><path class="cls-6" d="M222.34,131.1V126a21.58,21.58,0,0,1-9.15-2.32l1.62-6.3a19,19,0,0,0,8.93,2.37c3.07,0,5.17-1.18,5.17-3.34s-1.72-3.33-5.71-4.68c-5.76-1.94-9.69-4.63-9.69-9.85,0-4.74,3.34-8.45,9.1-9.59V87.17h5.28v4.74a19.42,19.42,0,0,1,7.81,1.77l-1.57,6.09a17.86,17.86,0,0,0-7.75-1.83c-3.5,0-4.63,1.51-4.63,3,0,1.78,1.89,2.91,6.46,4.63,6.41,2.26,9,5.23,9,10.07s-3.39,8.88-9.58,10v5.49Z"/></g></g></svg>